<svg width="41" height="34" viewBox="0 0 41 34" fill="none" xmlns="http://www.w3.org/2000/svg">
<g clip-path="url(#clip0_58_14)">
<path d="M10.6655 0.187011C9.81438 1.4971 8.61658 3.69619 8.71114 3.78976C8.77419 3.85215 13.1556 3.93013 18.4354 3.94573C27.1983 3.97692 28.0336 3.99252 28.0809 4.22646C28.1124 4.38242 27.8287 4.95949 27.482 5.53655C27.1195 6.12921 26.757 6.75307 26.6782 6.92463C26.5836 7.11178 26.426 7.42371 26.2999 7.62646C26.1896 7.84481 26.1266 8.07875 26.1581 8.14114C26.2842 8.34389 35.2046 8.28151 35.2046 8.07875C35.2046 7.98518 34.9997 7.56408 34.7318 7.14297C34.4639 6.73747 34.259 6.33196 34.259 6.25398C34.259 6.1916 34.0541 5.83288 33.7862 5.48976C33.534 5.13105 33.3134 4.78793 33.3134 4.74114C33.3134 4.67875 33.0139 4.13288 32.6357 3.52463C32.2574 2.91637 31.9107 2.30811 31.8476 2.18334C31.7846 2.05857 31.5955 1.73105 31.4221 1.48151C31.2487 1.21637 31.0281 0.842057 30.9493 0.623708C30.8547 0.420956 30.6814 0.187011 30.5868 0.124626C30.4765 0.0622402 25.9847 -0.000144958 20.5946 -0.000144958C12.9192 -0.000144958 10.76 0.0466442 10.6655 0.187011V0.187011ZM5.79544 8.62463C5.66936 8.70261 5.49599 8.90536 5.40143 9.09252C5.32262 9.27967 5.19654 9.54481 5.10198 9.66958C4.66068 10.3402 3.52592 12.2898 3.52592 12.3833C3.52592 12.4457 3.39984 12.6797 3.22647 12.9136C3.06887 13.1476 2.53301 14.0366 2.02867 14.8944C1.52433 15.7521 1.05151 16.4696 0.972712 16.5008C0.752065 16.5944 0.830868 17.0622 1.19336 17.6237C1.8553 18.6531 1.93411 18.7934 2.09171 19.1366C2.3754 19.7604 3.05311 20.743 3.19495 20.743C3.27375 20.743 3.51016 20.3999 3.73081 19.9943C4.50308 18.5439 6.36282 15.3466 6.8514 14.6292C7.02476 14.3953 7.15085 14.1613 7.15085 14.1145C7.15085 14.0677 7.68671 13.1476 8.33289 12.0714C8.97907 10.9953 9.51493 10.0751 9.51493 10.0127C9.51493 9.96591 9.70406 9.65398 9.92471 9.32646C10.1611 8.99894 10.303 8.67141 10.2399 8.60903C10.0666 8.45307 6.07913 8.46866 5.79544 8.62463V8.62463ZM16.3235 8.57784C15.6143 8.65582 15.6143 8.65582 14.8578 10.1375C14.6686 10.5274 14.2746 11.1824 14.0067 11.6191C13.723 12.0402 13.2659 12.82 12.9823 13.3347C12.6986 13.8494 12.3834 14.3797 12.2888 14.5044C12.1942 14.6292 11.9736 14.9879 11.8002 15.2843C11.2486 16.2668 10.7915 17.0622 10.4606 17.6237C9.89318 18.5751 9.48341 19.2769 7.65519 22.4274L5.85848 25.4999L6.14217 26.0457C6.29978 26.3421 6.72531 27.0751 7.08781 27.6833C7.43454 28.276 7.78127 28.931 7.84431 29.1182C7.90736 29.321 8.01768 29.4769 8.08072 29.4769C8.14376 29.4769 8.34865 29.7732 8.55354 30.132C8.74266 30.5063 9.04211 31.0054 9.21548 31.2705C9.37309 31.52 9.60949 31.9411 9.73558 32.2063C9.86166 32.4558 10.1769 32.9705 10.4448 33.3448L10.9334 33.9999H30.4922L30.7602 33.532C30.902 33.2824 31.0754 33.0641 31.1542 33.0641C31.2172 33.0641 31.2645 32.9861 31.2645 32.8925C31.2645 32.7989 31.5009 32.3155 31.8003 31.832C32.084 31.3485 32.5253 30.5999 32.7617 30.1788C32.9982 29.7421 33.6759 28.5879 34.259 27.6054C37.8524 21.5384 37.7894 21.6632 37.553 21.5072C37.4269 21.4292 37.1274 21.398 36.8752 21.4448C36.6231 21.4916 35.6932 21.5228 34.8106 21.5228H33.1873L32.2101 23.1916C31.6743 24.1274 30.6341 25.8742 29.9091 27.0907C29.1841 28.3072 28.5852 29.3677 28.5852 29.4613C28.5852 29.9292 27.8602 29.976 20.5 29.9604C16.4181 29.9448 13.0768 29.9292 13.0611 29.898C12.6513 29.3833 10.6182 25.7494 10.6182 25.5622C10.6182 25.4063 10.9334 24.7512 11.3274 24.1274C11.7214 23.4879 12.0366 22.9109 12.0366 22.8641C12.0366 22.8017 12.21 22.521 12.4306 22.2402C12.6513 21.9595 12.8246 21.6788 12.8246 21.6164C12.8246 21.554 13.1871 20.9145 13.6127 20.1815C14.054 19.4485 14.4007 18.8402 14.4007 18.809C14.4007 18.7466 16.1974 15.7054 16.8436 14.6916C17.08 14.3329 17.4425 13.709 17.6474 13.3035C17.868 12.898 18.4039 11.9934 18.8294 11.276C19.255 10.5586 19.6017 9.93472 19.6017 9.87233C19.6017 9.82554 19.7908 9.54481 20.0115 9.24848C20.2321 8.95215 20.374 8.67141 20.3267 8.60903C20.2006 8.48426 17.2849 8.46866 16.3235 8.57784V8.57784Z" fill="black"/>
<path d="M23.0848 13.2411C22.8641 13.4906 22.5016 14.0365 22.281 14.442C21.7609 15.4557 21.2881 16.2979 17.3795 22.9576C17.0327 23.519 16.7648 24.0493 16.7648 24.1117C16.7648 24.1741 16.6072 24.3924 16.4338 24.5796C16.0083 25.0319 16.1344 25.4998 16.6545 25.3594C16.8436 25.3126 18.9555 25.2658 21.3511 25.2658H25.6853L26.032 24.5952C26.4733 23.753 27.0249 22.8016 27.3874 22.2713C27.876 21.5383 27.7341 21.4759 25.4173 21.4603C23.3527 21.4447 23.3054 21.4447 23.2581 21.1016C23.2266 20.8833 23.5261 20.2126 24.0304 19.386C24.4875 18.6374 24.9918 17.764 25.1494 17.4365L25.4331 16.8438H32.8406C37.4899 16.8438 40.248 16.7814 40.248 16.6879C40.248 16.5163 38.4198 13.4438 38.0731 13.0539C37.8524 12.8044 37.3323 12.7888 30.6656 12.7888L23.4946 12.8044L23.0848 13.2411Z" fill="black"/>
</g>
<defs>
<clipPath id="clip0_58_14">
<rect width="41" height="34" fill="white"/>
</clipPath>
</defs>
</svg>
